<?xml version="1.0" encoding="UTF-8" standalone="no"?>
<!DOCTYPE svg PUBLIC "-//W3C//DTD SVG 1.1//EN"
 "http://www.w3.org/Graphics/SVG/1.1/DTD/svg11.dtd">
<!-- Generated by graphviz version 2.38.0 (20140413.2041)
 -->
<!-- Title: dependencies Pages: 1 -->
<svg width="6189pt" height="284pt"
 viewBox="0.00 0.00 6189.00 284.00" xmlns="http://www.w3.org/2000/svg" xmlns:xlink="http://www.w3.org/1999/xlink">
<g id="graph0" class="graph" transform="scale(1 1) rotate(0) translate(4 280)">
<title>dependencies</title>
<polygon fill="white" stroke="none" points="-4,4 -4,-280 6185,-280 6185,4 -4,4"/>
<text text-anchor="start" x="3069.51" y="-42.4" font-family="sans-serif" font-weight="bold" font-size="14.00">Legend</text>
<polygon fill="#ffffb3" stroke="none" points="2856.5,-10 2856.5,-30 2876.5,-30 2876.5,-10 2856.5,-10"/>
<text text-anchor="start" x="2880.13" y="-15.4" font-family="sans-serif" font-size="14.00"> &#160;Declarations</text>
<polygon fill="#8dd3c7" stroke="none" points="2969.5,-10 2969.5,-30 2989.5,-30 2989.5,-10 2969.5,-10"/>
<text text-anchor="start" x="2993.23" y="-15.4" font-family="sans-serif" font-size="14.00"> &#160;Module</text>
<polygon fill="#80b1d3" stroke="none" points="3055.5,-10 3055.5,-30 3075.5,-30 3075.5,-10 3055.5,-10"/>
<text text-anchor="start" x="3079.28" y="-15.4" font-family="sans-serif" font-size="14.00"> &#160;Bootstrap</text>
<polygon fill="#fdb462" stroke="none" points="3152.5,-10 3152.5,-30 3172.5,-30 3172.5,-10 3152.5,-10"/>
<text text-anchor="start" x="3176.17" y="-15.4" font-family="sans-serif" font-size="14.00"> &#160;Providers</text>
<polygon fill="#fb8072" stroke="none" points="3248.5,-10 3248.5,-30 3268.5,-30 3268.5,-10 3248.5,-10"/>
<text text-anchor="start" x="3272.23" y="-15.4" font-family="sans-serif" font-size="14.00"> &#160;Exports</text>
<g id="clust1" class="cluster"><title>cluster_AppModule</title>
<polygon fill="none" stroke="black" stroke-dasharray="1,5" points="8,-70 8,-268 6173,-268 6173,-70 8,-70"/>
</g>
<g id="clust2" class="cluster"><title>cluster_AppModule_declarations</title>
<polygon fill="none" stroke="black" points="5069,-78 5069,-130 6165,-130 6165,-78 5069,-78"/>
</g>
<g id="clust11" class="cluster"><title>cluster_AppModule_imports</title>
<polygon fill="none" stroke="black" points="2289,-78 2289,-130 5061,-130 5061,-78 2289,-78"/>
</g>
<g id="clust13" class="cluster"><title>cluster_AppModule_bootstrap</title>
<polygon fill="none" stroke="black" points="3273,-208 3273,-260 3397,-260 3397,-208 3273,-208"/>
</g>
<g id="clust14" class="cluster"><title>cluster_AppModule_providers</title>
<polygon fill="none" stroke="black" points="16,-78 16,-130 2281,-130 2281,-78 16,-78"/>
</g>
<!-- AppComponent -->
<g id="node1" class="node"><title>AppComponent</title>
<polygon fill="#ffffb3" stroke="black" points="6156.94,-122 6051.06,-122 6051.06,-86 6156.94,-86 6156.94,-122"/>
<text text-anchor="middle" x="6104" y="-99.8" font-family="Times,serif" font-size="14.00">AppComponent</text>
</g>
<!-- AppModule -->
<g id="node9" class="node"><title>AppModule</title>
<polygon fill="#8dd3c7" stroke="black" points="3376.66,-187 3373.66,-191 3352.66,-191 3349.66,-187 3293.34,-187 3293.34,-151 3376.66,-151 3376.66,-187"/>
<text text-anchor="middle" x="3335" y="-164.8" font-family="Times,serif" font-size="14.00">AppModule</text>
</g>
<!-- AppComponent&#45;&gt;AppModule -->
<g id="edge1" class="edge"><title>AppComponent&#45;&gt;AppModule</title>
<path fill="none" stroke="black" d="M6104,-122.38C6104,-146.279 6104,-185 6104,-185 6104,-185 3386.84,-185 3386.84,-185"/>
<polygon fill="black" stroke="black" points="3386.84,-181.5 3376.84,-185 3386.84,-188.5 3386.84,-181.5"/>
</g>
<!-- HeaderComponent -->
<g id="node2" class="node"><title>HeaderComponent</title>
<polygon fill="#ffffb3" stroke="black" points="6032.74,-122 5911.26,-122 5911.26,-86 6032.74,-86 6032.74,-122"/>
<text text-anchor="middle" x="5972" y="-99.8" font-family="Times,serif" font-size="14.00">HeaderComponent</text>
</g>
<!-- HeaderComponent&#45;&gt;AppModule -->
<g id="edge2" class="edge"><title>HeaderComponent&#45;&gt;AppModule</title>
<path fill="none" stroke="black" d="M5972,-122.323C5972,-145.66 5972,-183 5972,-183 5972,-183 3386.69,-183 3386.69,-183"/>
<polygon fill="black" stroke="black" points="3386.69,-179.5 3376.69,-183 3386.69,-186.5 3386.69,-179.5"/>
</g>
<!-- FooterComponent -->
<g id="node3" class="node"><title>FooterComponent</title>
<polygon fill="#ffffb3" stroke="black" points="5892.88,-122 5775.12,-122 5775.12,-86 5892.88,-86 5892.88,-122"/>
<text text-anchor="middle" x="5834" y="-99.8" font-family="Times,serif" font-size="14.00">FooterComponent</text>
</g>
<!-- FooterComponent&#45;&gt;AppModule -->
<g id="edge3" class="edge"><title>FooterComponent&#45;&gt;AppModule</title>
<path fill="none" stroke="black" d="M5834,-122.248C5834,-145.018 5834,-181 5834,-181 5834,-181 3386.81,-181 3386.81,-181"/>
<polygon fill="black" stroke="black" points="3386.81,-177.5 3376.81,-181 3386.81,-184.5 3386.81,-177.5"/>
</g>
<!-- PinsComponent -->
<g id="node4" class="node"><title>PinsComponent</title>
<polygon fill="#ffffb3" stroke="black" points="5756.95,-122 5651.05,-122 5651.05,-86 5756.95,-86 5756.95,-122"/>
<text text-anchor="middle" x="5704" y="-99.8" font-family="Times,serif" font-size="14.00">PinsComponent</text>
</g>
<!-- PinsComponent&#45;&gt;AppModule -->
<g id="edge4" class="edge"><title>PinsComponent&#45;&gt;AppModule</title>
<path fill="none" stroke="black" d="M5704,-122.155C5704,-144.352 5704,-179 5704,-179 5704,-179 3386.87,-179 3386.87,-179"/>
<polygon fill="black" stroke="black" points="3386.87,-175.5 3376.87,-179 3386.87,-182.5 3386.87,-175.5"/>
</g>
<!-- PinItemComponent -->
<g id="node5" class="node"><title>PinItemComponent</title>
<polygon fill="#ffffb3" stroke="black" points="5632.66,-122 5507.34,-122 5507.34,-86 5632.66,-86 5632.66,-122"/>
<text text-anchor="middle" x="5570" y="-99.8" font-family="Times,serif" font-size="14.00">PinItemComponent</text>
</g>
<!-- PinItemComponent&#45;&gt;AppModule -->
<g id="edge5" class="edge"><title>PinItemComponent&#45;&gt;AppModule</title>
<path fill="none" stroke="black" d="M5570,-122.045C5570,-143.662 5570,-177 5570,-177 5570,-177 3386.67,-177 3386.67,-177"/>
<polygon fill="black" stroke="black" points="3386.67,-173.5 3376.67,-177 3386.67,-180.5 3386.67,-173.5"/>
</g>
<!-- PinDetailComponent -->
<g id="node6" class="node"><title>PinDetailComponent</title>
<polygon fill="#ffffb3" stroke="black" points="5489.21,-122 5354.79,-122 5354.79,-86 5489.21,-86 5489.21,-122"/>
<text text-anchor="middle" x="5422" y="-99.8" font-family="Times,serif" font-size="14.00">PinDetailComponent</text>
</g>
<!-- PinDetailComponent&#45;&gt;AppModule -->
<g id="edge6" class="edge"><title>PinDetailComponent&#45;&gt;AppModule</title>
<path fill="none" stroke="black" d="M5422,-122.284C5422,-143.321 5422,-175 5422,-175 5422,-175 3386.69,-175 3386.69,-175"/>
<polygon fill="black" stroke="black" points="3386.69,-171.5 3376.69,-175 3386.69,-178.5 3386.69,-171.5"/>
</g>
<!-- ModalComponent -->
<g id="node7" class="node"><title>ModalComponent</title>
<polygon fill="#ffffb3" stroke="black" points="5336.88,-122 5219.12,-122 5219.12,-86 5336.88,-86 5336.88,-122"/>
<text text-anchor="middle" x="5278" y="-99.8" font-family="Times,serif" font-size="14.00">ModalComponent</text>
</g>
<!-- ModalComponent&#45;&gt;AppModule -->
<g id="edge7" class="edge"><title>ModalComponent&#45;&gt;AppModule</title>
<path fill="none" stroke="black" d="M5278,-122.129C5278,-142.572 5278,-173 5278,-173 5278,-173 3386.93,-173 3386.93,-173"/>
<polygon fill="black" stroke="black" points="3386.93,-169.5 3376.93,-173 3386.93,-176.5 3386.93,-169.5"/>
</g>
<!-- PinEditComponent -->
<g id="node8" class="node"><title>PinEditComponent</title>
<polygon fill="#ffffb3" stroke="black" points="5200.84,-122 5077.16,-122 5077.16,-86 5200.84,-86 5200.84,-122"/>
<text text-anchor="middle" x="5139" y="-99.8" font-family="Times,serif" font-size="14.00">PinEditComponent</text>
</g>
<!-- PinEditComponent&#45;&gt;AppModule -->
<g id="edge8" class="edge"><title>PinEditComponent&#45;&gt;AppModule</title>
<path fill="none" stroke="black" d="M5139,-122.308C5139,-142.146 5139,-171 5139,-171 5139,-171 3386.94,-171 3386.94,-171"/>
<polygon fill="black" stroke="black" points="3386.94,-167.5 3376.94,-171 3386.94,-174.5 3386.94,-167.5"/>
</g>
<!-- AppComponent  -->
<g id="node26" class="node"><title>AppComponent </title>
<polygon fill="#80b1d3" stroke="black" points="3389.44,-252 3280.56,-252 3280.56,-216 3389.44,-216 3389.44,-252"/>
<text text-anchor="middle" x="3335" y="-229.8" font-family="Times,serif" font-size="14.00">AppComponent </text>
</g>
<!-- AppModule&#45;&gt;AppComponent  -->
<g id="edge28" class="edge"><title>AppModule&#45;&gt;AppComponent </title>
<path fill="none" stroke="black" stroke-dasharray="1,5" d="M3335,-187.106C3335,-187.106 3335,-205.991 3335,-205.991"/>
<polygon fill="black" stroke="black" points="3331.5,-205.991 3335,-215.991 3338.5,-205.991 3331.5,-205.991"/>
</g>
<!-- BrowserModule -->
<g id="node10" class="node"><title>BrowserModule</title>
<polygon fill="#8dd3c7" stroke="black" points="5053.47,-122 5050.47,-126 5029.47,-126 5026.47,-122 4946.53,-122 4946.53,-86 5053.47,-86 5053.47,-122"/>
<text text-anchor="middle" x="5000" y="-99.8" font-family="Times,serif" font-size="14.00">BrowserModule</text>
</g>
<!-- BrowserModule&#45;&gt;AppModule -->
<g id="edge9" class="edge"><title>BrowserModule&#45;&gt;AppModule</title>
<path fill="none" stroke="black" d="M5000,-122.106C5000,-141.339 5000,-169 5000,-169 5000,-169 3386.99,-169 3386.99,-169"/>
<polygon fill="black" stroke="black" points="3386.99,-165.5 3376.99,-169 3386.99,-172.5 3386.99,-165.5"/>
</g>
<!-- FormsModule -->
<g id="node11" class="node"><title>FormsModule</title>
<polygon fill="#8dd3c7" stroke="black" points="4928.83,-122 4925.83,-126 4904.83,-126 4901.83,-122 4833.17,-122 4833.17,-86 4928.83,-86 4928.83,-122"/>
<text text-anchor="middle" x="4881" y="-99.8" font-family="Times,serif" font-size="14.00">FormsModule</text>
</g>
<!-- FormsModule&#45;&gt;AppModule -->
<g id="edge10" class="edge"><title>FormsModule&#45;&gt;AppModule</title>
<path fill="none" stroke="black" d="M4881,-122.222C4881,-140.829 4881,-167 4881,-167 4881,-167 3386.75,-167 3386.75,-167"/>
<polygon fill="black" stroke="black" points="3386.75,-163.5 3376.75,-167 3386.75,-170.5 3386.75,-163.5"/>
</g>
<!-- ReactiveFormsModule -->
<g id="node12" class="node"><title>ReactiveFormsModule</title>
<polygon fill="#8dd3c7" stroke="black" points="4815.3,-122 4812.3,-126 4791.3,-126 4788.3,-122 4670.7,-122 4670.7,-86 4815.3,-86 4815.3,-122"/>
<text text-anchor="middle" x="4743" y="-99.8" font-family="Times,serif" font-size="14.00">ReactiveFormsModule</text>
</g>
<!-- ReactiveFormsModule&#45;&gt;AppModule -->
<g id="edge11" class="edge"><title>ReactiveFormsModule&#45;&gt;AppModule</title>
<path fill="none" stroke="black" d="M4743,-122.302C4743,-140.27 4743,-165 4743,-165 4743,-165 3386.76,-165 3386.76,-165"/>
<polygon fill="black" stroke="black" points="3386.76,-161.5 3376.76,-165 3386.76,-168.5 3386.76,-161.5"/>
</g>
<!-- HttpModule -->
<g id="node13" class="node"><title>HttpModule</title>
<polygon fill="#8dd3c7" stroke="black" points="4653.44,-122 4650.44,-126 4629.44,-126 4626.44,-122 4568.56,-122 4568.56,-86 4653.44,-86 4653.44,-122"/>
<text text-anchor="middle" x="4611" y="-99.8" font-family="Times,serif" font-size="14.00">HttpModule</text>
</g>
<!-- HttpModule&#45;&gt;AppModule -->
<g id="edge12" class="edge"><title>HttpModule&#45;&gt;AppModule</title>
<path fill="none" stroke="black" d="M4611,-122.023C4611,-139.373 4611,-163 4611,-163 4611,-163 3386.73,-163 3386.73,-163"/>
<polygon fill="black" stroke="black" points="3386.73,-159.5 3376.73,-163 3386.73,-166.5 3386.73,-159.5"/>
</g>
<!-- AppRoutes -->
<g id="node14" class="node"><title>AppRoutes</title>
<polygon fill="#8dd3c7" stroke="black" points="4550.49,-122 4547.49,-126 4526.49,-126 4523.49,-122 4471.51,-122 4471.51,-86 4550.49,-86 4550.49,-122"/>
<text text-anchor="middle" x="4511" y="-99.8" font-family="Times,serif" font-size="14.00">AppRoutes</text>
</g>
<!-- AppRoutes&#45;&gt;AppModule -->
<g id="edge13" class="edge"><title>AppRoutes&#45;&gt;AppModule</title>
<path fill="none" stroke="black" d="M4511,-122.035C4511,-138.734 4511,-161 4511,-161 4511,-161 3386.85,-161 3386.85,-161"/>
<polygon fill="black" stroke="black" points="3386.85,-157.5 3376.85,-161 3386.85,-164.5 3386.85,-157.5"/>
</g>
<!-- AngularFireModule.initializeApp(args) -->
<g id="node15" class="node"><title>AngularFireModule.initializeApp(args)</title>
<polygon fill="#8dd3c7" stroke="black" points="4453.71,-122 4450.71,-126 4429.71,-126 4426.71,-122 4216.29,-122 4216.29,-86 4453.71,-86 4453.71,-122"/>
<text text-anchor="middle" x="4335" y="-99.8" font-family="Times,serif" font-size="14.00">AngularFireModule.initializeApp(args)</text>
</g>
<!-- AngularFireModule.initializeApp(args)&#45;&gt;AppModule -->
<g id="edge14" class="edge"><title>AngularFireModule.initializeApp(args)&#45;&gt;AppModule</title>
<path fill="none" stroke="black" d="M4335,-122.009C4335,-138.049 4335,-159 4335,-159 4335,-159 3386.7,-159 3386.7,-159"/>
<polygon fill="black" stroke="black" points="3386.7,-155.5 3376.7,-159 3386.7,-162.5 3386.7,-155.5"/>
</g>
<!-- RouterModule.forRoot(args) -->
<g id="node16" class="node"><title>RouterModule.forRoot(args)</title>
<polygon fill="#8dd3c7" stroke="black" points="4198.84,-122 4195.84,-126 4174.84,-126 4171.84,-122 4021.16,-122 4021.16,-86 4198.84,-86 4198.84,-122"/>
<text text-anchor="middle" x="4110" y="-99.8" font-family="Times,serif" font-size="14.00">RouterModule.forRoot(args)</text>
</g>
<!-- RouterModule.forRoot(args)&#45;&gt;AppModule -->
<g id="edge15" class="edge"><title>RouterModule.forRoot(args)&#45;&gt;AppModule</title>
<path fill="none" stroke="black" d="M4110,-122.24C4110,-137.571 4110,-157 4110,-157 4110,-157 3386.67,-157 3386.67,-157"/>
<polygon fill="black" stroke="black" points="3386.67,-153.5 3376.67,-157 3386.67,-160.5 3386.67,-153.5"/>
</g>
<!-- StoreModule.provideStore(args) -->
<g id="node17" class="node"><title>StoreModule.provideStore(args)</title>
<polygon fill="#8dd3c7" stroke="black" points="4003.55,-122 4000.55,-126 3979.55,-126 3976.55,-122 3806.45,-122 3806.45,-86 4003.55,-86 4003.55,-122"/>
<text text-anchor="middle" x="3905" y="-99.8" font-family="Times,serif" font-size="14.00">StoreModule.provideStore(args)</text>
</g>
<!-- StoreModule.provideStore(args)&#45;&gt;AppModule -->
<g id="edge16" class="edge"><title>StoreModule.provideStore(args)&#45;&gt;AppModule</title>
<path fill="none" stroke="black" d="M3905,-122.124C3905,-136.783 3905,-155 3905,-155 3905,-155 3386.91,-155 3386.91,-155"/>
<polygon fill="black" stroke="black" points="3386.91,-151.5 3376.91,-155 3386.91,-158.5 3386.91,-151.5"/>
</g>
<!-- StoreDevtoolsModule.instrumentOnlyWithExtension() -->
<g id="node18" class="node"><title>StoreDevtoolsModule.instrumentOnlyWithExtension()</title>
<polygon fill="#8dd3c7" stroke="black" points="3788.33,-122 3785.33,-126 3764.33,-126 3761.33,-122 3463.67,-122 3463.67,-86 3788.33,-86 3788.33,-122"/>
<text text-anchor="middle" x="3626" y="-99.8" font-family="Times,serif" font-size="14.00">StoreDevtoolsModule.instrumentOnlyWithExtension()</text>
</g>
<!-- StoreDevtoolsModule.instrumentOnlyWithExtension()&#45;&gt;AppModule -->
<g id="edge17" class="edge"><title>StoreDevtoolsModule.instrumentOnlyWithExtension()&#45;&gt;AppModule</title>
<path fill="none" stroke="black" d="M3626,-122.246C3626,-136.177 3626,-153 3626,-153 3626,-153 3386.69,-153 3386.69,-153"/>
<polygon fill="black" stroke="black" points="3386.69,-149.5 3376.69,-153 3386.69,-156.5 3386.69,-149.5"/>
</g>
<!-- RouterStoreModule.connectRouter() -->
<g id="node19" class="node"><title>RouterStoreModule.connectRouter()</title>
<polygon fill="#8dd3c7" stroke="black" points="3445.66,-122 3442.66,-126 3421.66,-126 3418.66,-122 3224.34,-122 3224.34,-86 3445.66,-86 3445.66,-122"/>
<text text-anchor="middle" x="3335" y="-99.8" font-family="Times,serif" font-size="14.00">RouterStoreModule.connectRouter()</text>
</g>
<!-- RouterStoreModule.connectRouter()&#45;&gt;AppModule -->
<g id="edge18" class="edge"><title>RouterStoreModule.connectRouter()&#45;&gt;AppModule</title>
<path fill="none" stroke="black" d="M3335,-122.106C3335,-122.106 3335,-140.991 3335,-140.991"/>
<polygon fill="black" stroke="black" points="3331.5,-140.991 3335,-150.991 3338.5,-140.991 3331.5,-140.991"/>
</g>
<!-- EffectsModule.run(args) -->
<g id="node20" class="node"><title>EffectsModule.run(args)</title>
<polygon fill="#8dd3c7" stroke="black" points="3205.99,-122 3202.99,-126 3181.99,-126 3178.99,-122 3052.01,-122 3052.01,-86 3205.99,-86 3205.99,-122"/>
<text text-anchor="middle" x="3129" y="-99.8" font-family="Times,serif" font-size="14.00">EffectsModule.run(args)</text>
</g>
<!-- EffectsModule.run(args)&#45;&gt;AppModule -->
<g id="edge19" class="edge"><title>EffectsModule.run(args)&#45;&gt;AppModule</title>
<path fill="none" stroke="black" d="M3113.6,-122.24C3113.6,-137.571 3113.6,-157 3113.6,-157 3113.6,-157 3283.1,-157 3283.1,-157"/>
<polygon fill="black" stroke="black" points="3283.1,-160.5 3293.1,-157 3283.1,-153.5 3283.1,-160.5"/>
</g>
<!-- EffectsModule.run(args)&#45;&gt;AppModule -->
<g id="edge20" class="edge"><title>EffectsModule.run(args)&#45;&gt;AppModule</title>
<path fill="none" stroke="black" d="M3144.4,-122.124C3144.4,-136.783 3144.4,-155 3144.4,-155 3144.4,-155 3283.17,-155 3283.17,-155"/>
<polygon fill="black" stroke="black" points="3283.17,-158.5 3293.17,-155 3283.17,-151.5 3283.17,-158.5"/>
</g>
<!-- EffectsModule.run(args)&#45;&gt;AppModule -->
<g id="edge21" class="edge"><title>EffectsModule.run(args)&#45;&gt;AppModule</title>
<path fill="none" stroke="black" d="M3082.8,-122.009C3082.8,-138.049 3082.8,-159 3082.8,-159 3082.8,-159 3283.07,-159 3283.07,-159"/>
<polygon fill="black" stroke="black" points="3283.07,-162.5 3293.07,-159 3283.07,-155.5 3283.07,-162.5"/>
</g>
<!-- EffectsModule.run(args)&#45;&gt;AppModule -->
<g id="edge22" class="edge"><title>EffectsModule.run(args)&#45;&gt;AppModule</title>
<path fill="none" stroke="black" d="M3175.2,-122.246C3175.2,-136.177 3175.2,-153 3175.2,-153 3175.2,-153 3283.01,-153 3283.01,-153"/>
<polygon fill="black" stroke="black" points="3283.01,-156.5 3293.01,-153 3283.01,-149.5 3283.01,-156.5"/>
</g>
<!-- MasonryModule -->
<g id="node21" class="node"><title>MasonryModule</title>
<polygon fill="#8dd3c7" stroke="black" points="3033.81,-122 3030.81,-126 3009.81,-126 3006.81,-122 2924.19,-122 2924.19,-86 3033.81,-86 3033.81,-122"/>
<text text-anchor="middle" x="2979" y="-99.8" font-family="Times,serif" font-size="14.00">MasonryModule</text>
</g>
<!-- MasonryModule&#45;&gt;AppModule -->
<g id="edge23" class="edge"><title>MasonryModule&#45;&gt;AppModule</title>
<path fill="none" stroke="black" d="M2979,-122.035C2979,-138.734 2979,-161 2979,-161 2979,-161 3283.12,-161 3283.12,-161"/>
<polygon fill="black" stroke="black" points="3283.12,-164.5 3293.12,-161 3283.12,-157.5 3283.12,-164.5"/>
</g>
<!-- InfiniteScrollModule -->
<g id="node22" class="node"><title>InfiniteScrollModule</title>
<polygon fill="#8dd3c7" stroke="black" points="2906.2,-122 2903.2,-126 2882.2,-126 2879.2,-122 2771.8,-122 2771.8,-86 2906.2,-86 2906.2,-122"/>
<text text-anchor="middle" x="2839" y="-99.8" font-family="Times,serif" font-size="14.00">InfiniteScrollModule</text>
</g>
<!-- InfiniteScrollModule&#45;&gt;AppModule -->
<g id="edge24" class="edge"><title>InfiniteScrollModule&#45;&gt;AppModule</title>
<path fill="none" stroke="black" d="M2839,-122.023C2839,-139.373 2839,-163 2839,-163 2839,-163 3283.14,-163 3283.14,-163"/>
<polygon fill="black" stroke="black" points="3283.14,-166.5 3293.14,-163 3283.14,-159.5 3283.14,-166.5"/>
</g>
<!-- SlimLoadingBarModule.forRoot() -->
<g id="node23" class="node"><title>SlimLoadingBarModule.forRoot()</title>
<polygon fill="#8dd3c7" stroke="black" points="2753.74,-122 2750.74,-126 2729.74,-126 2726.74,-122 2544.26,-122 2544.26,-86 2753.74,-86 2753.74,-122"/>
<text text-anchor="middle" x="2649" y="-99.8" font-family="Times,serif" font-size="14.00">SlimLoadingBarModule.forRoot()</text>
</g>
<!-- SlimLoadingBarModule.forRoot()&#45;&gt;AppModule -->
<g id="edge25" class="edge"><title>SlimLoadingBarModule.forRoot()&#45;&gt;AppModule</title>
<path fill="none" stroke="black" d="M2649,-122.302C2649,-140.27 2649,-165 2649,-165 2649,-165 3283.12,-165 3283.12,-165"/>
<polygon fill="black" stroke="black" points="3283.12,-168.5 3293.12,-165 3283.12,-161.5 3283.12,-168.5"/>
</g>
<!-- ToasterModule -->
<g id="node24" class="node"><title>ToasterModule</title>
<polygon fill="#8dd3c7" stroke="black" points="2526.53,-122 2523.53,-126 2502.53,-126 2499.53,-122 2425.47,-122 2425.47,-86 2526.53,-86 2526.53,-122"/>
<text text-anchor="middle" x="2476" y="-99.8" font-family="Times,serif" font-size="14.00">ToasterModule</text>
</g>
<!-- ToasterModule&#45;&gt;AppModule -->
<g id="edge26" class="edge"><title>ToasterModule&#45;&gt;AppModule</title>
<path fill="none" stroke="black" d="M2476,-122.222C2476,-140.829 2476,-167 2476,-167 2476,-167 3283.28,-167 3283.28,-167"/>
<polygon fill="black" stroke="black" points="3283.28,-170.5 3293.28,-167 3283.28,-163.5 3283.28,-170.5"/>
</g>
<!-- TagInputModule -->
<g id="node25" class="node"><title>TagInputModule</title>
<polygon fill="#8dd3c7" stroke="black" points="2407.37,-122 2404.37,-126 2383.37,-126 2380.37,-122 2296.63,-122 2296.63,-86 2407.37,-86 2407.37,-122"/>
<text text-anchor="middle" x="2352" y="-99.8" font-family="Times,serif" font-size="14.00">TagInputModule</text>
</g>
<!-- TagInputModule&#45;&gt;AppModule -->
<g id="edge27" class="edge"><title>TagInputModule&#45;&gt;AppModule</title>
<path fill="none" stroke="black" d="M2352,-122.106C2352,-141.339 2352,-169 2352,-169 2352,-169 3283.08,-169 3283.08,-169"/>
<polygon fill="black" stroke="black" points="3283.08,-172.5 3293.08,-169 3283.08,-165.5 3283.08,-172.5"/>
</g>
<!-- AuthenticationService -->
<g id="node27" class="node"><title>AuthenticationService</title>
<ellipse fill="#fdb462" stroke="black" cx="2176" cy="-104" rx="97.2683" ry="18"/>
<text text-anchor="middle" x="2176" y="-99.8" font-family="Times,serif" font-size="14.00">AuthenticationService</text>
</g>
<!-- AuthenticationService&#45;&gt;AppModule -->
<g id="edge29" class="edge"><title>AuthenticationService&#45;&gt;AppModule</title>
<path fill="none" stroke="black" d="M2176,-122.308C2176,-142.146 2176,-171 2176,-171 2176,-171 3283.07,-171 3283.07,-171"/>
<polygon fill="black" stroke="black" points="3283.07,-174.5 3293.07,-171 3283.07,-167.5 3283.07,-174.5"/>
</g>
<!-- PinDataService -->
<g id="node28" class="node"><title>PinDataService</title>
<ellipse fill="#fdb462" stroke="black" cx="1990" cy="-104" rx="71.2017" ry="18"/>
<text text-anchor="middle" x="1990" y="-99.8" font-family="Times,serif" font-size="14.00">PinDataService</text>
</g>
<!-- PinDataService&#45;&gt;AppModule -->
<g id="edge30" class="edge"><title>PinDataService&#45;&gt;AppModule</title>
<path fill="none" stroke="black" d="M1990,-122.129C1990,-142.572 1990,-173 1990,-173 1990,-173 3283.27,-173 3283.27,-173"/>
<polygon fill="black" stroke="black" points="3283.27,-176.5 3293.27,-173 3283.27,-169.5 3283.27,-176.5"/>
</g>
<!-- LoaderService -->
<g id="node29" class="node"><title>LoaderService</title>
<ellipse fill="#fdb462" stroke="black" cx="1834" cy="-104" rx="67.1734" ry="18"/>
<text text-anchor="middle" x="1834" y="-99.8" font-family="Times,serif" font-size="14.00">LoaderService</text>
</g>
<!-- LoaderService&#45;&gt;AppModule -->
<g id="edge31" class="edge"><title>LoaderService&#45;&gt;AppModule</title>
<path fill="none" stroke="black" d="M1834,-122.284C1834,-143.321 1834,-175 1834,-175 1834,-175 3283.29,-175 3283.29,-175"/>
<polygon fill="black" stroke="black" points="3283.29,-178.5 3293.29,-175 3283.29,-171.5 3283.29,-178.5"/>
</g>
<!-- { provide: HttpService, useFactory: httpInterceptor, deps: [XHRBackend, RequestOptions, LoaderService, Store] } -->
<g id="node30" class="node"><title>{ provide: HttpService, useFactory: httpInterceptor, deps: [XHRBackend, RequestOptions, LoaderService, Store] }</title>
<ellipse fill="#fdb462" stroke="black" cx="1292" cy="-104" rx="456.72" ry="18"/>
<text text-anchor="middle" x="1292" y="-99.8" font-family="Times,serif" font-size="14.00">{ provide: HttpService, useFactory: httpInterceptor, deps: [XHRBackend, RequestOptions, LoaderService, Store] }</text>
</g>
<!-- { provide: HttpService, useFactory: httpInterceptor, deps: [XHRBackend, RequestOptions, LoaderService, Store] }&#45;&gt;AppModule -->
<g id="edge32" class="edge"><title>{ provide: HttpService, useFactory: httpInterceptor, deps: [XHRBackend, RequestOptions, LoaderService, Store] }&#45;&gt;AppModule</title>
<path fill="none" stroke="black" d="M1292,-122.045C1292,-143.662 1292,-177 1292,-177 1292,-177 3283.26,-177 3283.26,-177"/>
<polygon fill="black" stroke="black" points="3283.26,-180.5 3293.26,-177 3283.26,-173.5 3283.26,-180.5"/>
</g>
<!-- ToasterService -->
<g id="node31" class="node"><title>ToasterService</title>
<ellipse fill="#fdb462" stroke="black" cx="748" cy="-104" rx="68.8946" ry="18"/>
<text text-anchor="middle" x="748" y="-99.8" font-family="Times,serif" font-size="14.00">ToasterService</text>
</g>
<!-- ToasterService&#45;&gt;AppModule -->
<g id="edge33" class="edge"><title>ToasterService&#45;&gt;AppModule</title>
<path fill="none" stroke="black" d="M748,-122.155C748,-144.352 748,-179 748,-179 748,-179 3283.32,-179 3283.32,-179"/>
<polygon fill="black" stroke="black" points="3283.32,-182.5 3293.32,-179 3283.32,-175.5 3283.32,-182.5"/>
</g>
<!-- CanActivateViaAuthGuard -->
<g id="node32" class="node"><title>CanActivateViaAuthGuard</title>
<ellipse fill="#fdb462" stroke="black" cx="544" cy="-104" rx="116.873" ry="18"/>
<text text-anchor="middle" x="544" y="-99.8" font-family="Times,serif" font-size="14.00">CanActivateViaAuthGuard</text>
</g>
<!-- CanActivateViaAuthGuard&#45;&gt;AppModule -->
<g id="edge34" class="edge"><title>CanActivateViaAuthGuard&#45;&gt;AppModule</title>
<path fill="none" stroke="black" d="M544,-122.248C544,-145.018 544,-181 544,-181 544,-181 3283.11,-181 3283.11,-181"/>
<polygon fill="black" stroke="black" points="3283.11,-184.5 3293.11,-181 3283.11,-177.5 3283.11,-184.5"/>
</g>
<!-- CanEditPinGuard -->
<g id="node33" class="node"><title>CanEditPinGuard</title>
<ellipse fill="#fdb462" stroke="black" cx="330" cy="-104" rx="79.8953" ry="18"/>
<text text-anchor="middle" x="330" y="-99.8" font-family="Times,serif" font-size="14.00">CanEditPinGuard</text>
</g>
<!-- CanEditPinGuard&#45;&gt;AppModule -->
<g id="edge35" class="edge"><title>CanEditPinGuard&#45;&gt;AppModule</title>
<path fill="none" stroke="black" d="M330,-122.323C330,-145.66 330,-183 330,-183 330,-183 3283.09,-183 3283.09,-183"/>
<polygon fill="black" stroke="black" points="3283.09,-186.5 3293.09,-183 3283.09,-179.5 3283.09,-186.5"/>
</g>
<!-- PhoenixChannelService -->
<g id="node34" class="node"><title>PhoenixChannelService</title>
<ellipse fill="#fdb462" stroke="black" cx="128" cy="-104" rx="103.655" ry="18"/>
<text text-anchor="middle" x="128" y="-99.8" font-family="Times,serif" font-size="14.00">PhoenixChannelService</text>
</g>
<!-- PhoenixChannelService&#45;&gt;AppModule -->
<g id="edge36" class="edge"><title>PhoenixChannelService&#45;&gt;AppModule</title>
<path fill="none" stroke="black" d="M128,-122.38C128,-146.279 128,-185 128,-185 128,-185 3283.28,-185 3283.28,-185"/>
<polygon fill="black" stroke="black" points="3283.28,-188.5 3293.28,-185 3283.28,-181.5 3283.28,-188.5"/>
</g>
</g>
</svg>
