<?xml version="1.0" encoding="UTF-8" standalone="no"?>
<!DOCTYPE svg PUBLIC "-//W3C//DTD SVG 1.1//EN"
 "http://www.w3.org/Graphics/SVG/1.1/DTD/svg11.dtd">
<!-- Generated by graphviz version 2.38.0 (20140413.2041)
 -->
<!-- Title: dependencies Pages: 1 -->
<svg width="6235pt" height="287pt"
 viewBox="0.00 0.00 6235.00 287.00" xmlns="http://www.w3.org/2000/svg" xmlns:xlink="http://www.w3.org/1999/xlink">
<g id="graph0" class="graph" transform="scale(1 1) rotate(0) translate(4 283)">
<title>dependencies</title>
<polygon fill="white" stroke="none" points="-4,4 -4,-283 6231,-283 6231,4 -4,4"/>
<text text-anchor="start" x="3092.51" y="-42.4" font-family="sans-serif" font-weight="bold" font-size="14.00">Legend</text>
<polygon fill="#ffffb3" stroke="none" points="2879.5,-10 2879.5,-30 2899.5,-30 2899.5,-10 2879.5,-10"/>
<text text-anchor="start" x="2903.13" y="-15.4" font-family="sans-serif" font-size="14.00"> &#160;Declarations</text>
<polygon fill="#8dd3c7" stroke="none" points="2992.5,-10 2992.5,-30 3012.5,-30 3012.5,-10 2992.5,-10"/>
<text text-anchor="start" x="3016.23" y="-15.4" font-family="sans-serif" font-size="14.00"> &#160;Module</text>
<polygon fill="#80b1d3" stroke="none" points="3078.5,-10 3078.5,-30 3098.5,-30 3098.5,-10 3078.5,-10"/>
<text text-anchor="start" x="3102.28" y="-15.4" font-family="sans-serif" font-size="14.00"> &#160;Bootstrap</text>
<polygon fill="#fdb462" stroke="none" points="3175.5,-10 3175.5,-30 3195.5,-30 3195.5,-10 3175.5,-10"/>
<text text-anchor="start" x="3199.17" y="-15.4" font-family="sans-serif" font-size="14.00"> &#160;Providers</text>
<polygon fill="#fb8072" stroke="none" points="3271.5,-10 3271.5,-30 3291.5,-30 3291.5,-10 3271.5,-10"/>
<text text-anchor="start" x="3295.23" y="-15.4" font-family="sans-serif" font-size="14.00"> &#160;Exports</text>
<g id="clust1" class="cluster"><title>cluster_AppModule</title>
<polygon fill="none" stroke="black" stroke-dasharray="1,5" points="8,-70 8,-271 6077,-271 6077,-70 8,-70"/>
</g>
<g id="clust2" class="cluster"><title>cluster_AppModule_declarations</title>
<polygon fill="none" stroke="black" points="2289,-78 2289,-130 3385,-130 3385,-78 2289,-78"/>
</g>
<g id="clust11" class="cluster"><title>cluster_AppModule_imports</title>
<polygon fill="none" stroke="black" points="3393,-78 3393,-195 6069,-195 6069,-78 3393,-78"/>
</g>
<g id="clust13" class="cluster"><title>cluster_AppModule_bootstrap</title>
<polygon fill="none" stroke="black" points="3281,-211 3281,-263 3405,-263 3405,-211 3281,-211"/>
</g>
<g id="clust14" class="cluster"><title>cluster_AppModule_providers</title>
<polygon fill="none" stroke="black" points="16,-78 16,-130 2281,-130 2281,-78 16,-78"/>
</g>
<g id="clust15" class="cluster"><title>cluster_AppRoutes</title>
<polygon fill="none" stroke="black" stroke-dasharray="1,5" points="6085,-203 6085,-271 6219,-271 6219,-203 6085,-203"/>
</g>
<g id="clust18" class="cluster"><title>cluster_AppRoutes_exports</title>
<polygon fill="none" stroke="black" points="6093,-211 6093,-263 6211,-263 6211,-211 6093,-211"/>
</g>
<!-- AppComponent -->
<g id="node1" class="node"><title>AppComponent</title>
<polygon fill="#ffffb3" stroke="black" points="3376.94,-122 3271.06,-122 3271.06,-86 3376.94,-86 3376.94,-122"/>
<text text-anchor="middle" x="3324" y="-99.8" font-family="Times,serif" font-size="14.00">AppComponent</text>
</g>
<!-- AppModule -->
<g id="node9" class="node"><title>AppModule</title>
<polygon fill="#8dd3c7" stroke="black" points="3384.66,-187 3381.66,-191 3360.66,-191 3357.66,-187 3301.34,-187 3301.34,-151 3384.66,-151 3384.66,-187"/>
<text text-anchor="middle" x="3343" y="-164.8" font-family="Times,serif" font-size="14.00">AppModule</text>
</g>
<!-- AppComponent&#45;&gt;AppModule -->
<g id="edge1" class="edge"><title>AppComponent&#45;&gt;AppModule</title>
<path fill="none" stroke="black" d="M3338.95,-122.106C3338.95,-122.106 3338.95,-140.991 3338.95,-140.991"/>
<polygon fill="black" stroke="black" points="3335.45,-140.991 3338.95,-150.991 3342.45,-140.991 3335.45,-140.991"/>
</g>
<!-- HeaderComponent -->
<g id="node2" class="node"><title>HeaderComponent</title>
<polygon fill="#ffffb3" stroke="black" points="3252.74,-122 3131.26,-122 3131.26,-86 3252.74,-86 3252.74,-122"/>
<text text-anchor="middle" x="3192" y="-99.8" font-family="Times,serif" font-size="14.00">HeaderComponent</text>
</g>
<!-- HeaderComponent&#45;&gt;AppModule -->
<g id="edge2" class="edge"><title>HeaderComponent&#45;&gt;AppModule</title>
<path fill="none" stroke="black" d="M3192,-122.051C3192,-136.373 3192,-154 3192,-154 3192,-154 3291.34,-154 3291.34,-154"/>
<polygon fill="black" stroke="black" points="3291.34,-157.5 3301.34,-154 3291.34,-150.5 3291.34,-157.5"/>
</g>
<!-- FooterComponent -->
<g id="node3" class="node"><title>FooterComponent</title>
<polygon fill="#ffffb3" stroke="black" points="3112.88,-122 2995.12,-122 2995.12,-86 3112.88,-86 3112.88,-122"/>
<text text-anchor="middle" x="3054" y="-99.8" font-family="Times,serif" font-size="14.00">FooterComponent</text>
</g>
<!-- FooterComponent&#45;&gt;AppModule -->
<g id="edge3" class="edge"><title>FooterComponent&#45;&gt;AppModule</title>
<path fill="none" stroke="black" d="M3054,-122.187C3054,-137.182 3054,-156 3054,-156 3054,-156 3291.29,-156 3291.29,-156"/>
<polygon fill="black" stroke="black" points="3291.29,-159.5 3301.29,-156 3291.29,-152.5 3291.29,-159.5"/>
</g>
<!-- PinsComponent -->
<g id="node4" class="node"><title>PinsComponent</title>
<polygon fill="#ffffb3" stroke="black" points="2976.95,-122 2871.05,-122 2871.05,-86 2976.95,-86 2976.95,-122"/>
<text text-anchor="middle" x="2924" y="-99.8" font-family="Times,serif" font-size="14.00">PinsComponent</text>
</g>
<!-- PinsComponent&#45;&gt;AppModule -->
<g id="edge4" class="edge"><title>PinsComponent&#45;&gt;AppModule</title>
<path fill="none" stroke="black" d="M2924,-122.282C2924,-137.948 2924,-158 2924,-158 2924,-158 3291.29,-158 3291.29,-158"/>
<polygon fill="black" stroke="black" points="3291.29,-161.5 3301.29,-158 3291.29,-154.5 3291.29,-161.5"/>
</g>
<!-- PinItemComponent -->
<g id="node5" class="node"><title>PinItemComponent</title>
<polygon fill="#ffffb3" stroke="black" points="2852.66,-122 2727.34,-122 2727.34,-86 2852.66,-86 2852.66,-122"/>
<text text-anchor="middle" x="2790" y="-99.8" font-family="Times,serif" font-size="14.00">PinItemComponent</text>
</g>
<!-- PinItemComponent&#45;&gt;AppModule -->
<g id="edge5" class="edge"><title>PinItemComponent&#45;&gt;AppModule</title>
<path fill="none" stroke="black" d="M2790,-122.027C2790,-138.398 2790,-160 2790,-160 2790,-160 3290.98,-160 3290.98,-160"/>
<polygon fill="black" stroke="black" points="3290.98,-163.5 3300.98,-160 3290.98,-156.5 3290.98,-163.5"/>
</g>
<!-- PinDetailComponent -->
<g id="node6" class="node"><title>PinDetailComponent</title>
<polygon fill="#ffffb3" stroke="black" points="2709.21,-122 2574.79,-122 2574.79,-86 2709.21,-86 2709.21,-122"/>
<text text-anchor="middle" x="2642" y="-99.8" font-family="Times,serif" font-size="14.00">PinDetailComponent</text>
</g>
<!-- PinDetailComponent&#45;&gt;AppModule -->
<g id="edge6" class="edge"><title>PinDetailComponent&#45;&gt;AppModule</title>
<path fill="none" stroke="black" d="M2642,-122.023C2642,-139.373 2642,-163 2642,-163 2642,-163 3291.25,-163 3291.25,-163"/>
<polygon fill="black" stroke="black" points="3291.25,-166.5 3301.25,-163 3291.25,-159.5 3291.25,-166.5"/>
</g>
<!-- ModalComponent -->
<g id="node7" class="node"><title>ModalComponent</title>
<polygon fill="#ffffb3" stroke="black" points="2556.88,-122 2439.12,-122 2439.12,-86 2556.88,-86 2556.88,-122"/>
<text text-anchor="middle" x="2498" y="-99.8" font-family="Times,serif" font-size="14.00">ModalComponent</text>
</g>
<!-- ModalComponent&#45;&gt;AppModule -->
<g id="edge7" class="edge"><title>ModalComponent&#45;&gt;AppModule</title>
<path fill="none" stroke="black" d="M2498,-122.302C2498,-140.27 2498,-165 2498,-165 2498,-165 3291.1,-165 3291.1,-165"/>
<polygon fill="black" stroke="black" points="3291.1,-168.5 3301.1,-165 3291.1,-161.5 3291.1,-168.5"/>
</g>
<!-- PinEditComponent -->
<g id="node8" class="node"><title>PinEditComponent</title>
<polygon fill="#ffffb3" stroke="black" points="2420.84,-122 2297.16,-122 2297.16,-86 2420.84,-86 2420.84,-122"/>
<text text-anchor="middle" x="2359" y="-99.8" font-family="Times,serif" font-size="14.00">PinEditComponent</text>
</g>
<!-- PinEditComponent&#45;&gt;AppModule -->
<g id="edge8" class="edge"><title>PinEditComponent&#45;&gt;AppModule</title>
<path fill="none" stroke="black" d="M2359,-122.222C2359,-140.829 2359,-167 2359,-167 2359,-167 3291.03,-167 3291.03,-167"/>
<polygon fill="black" stroke="black" points="3291.03,-170.5 3301.03,-167 3291.03,-163.5 3291.03,-170.5"/>
</g>
<!-- AppComponent  -->
<g id="node26" class="node"><title>AppComponent </title>
<polygon fill="#80b1d3" stroke="black" points="3397.44,-255 3288.56,-255 3288.56,-219 3397.44,-219 3397.44,-255"/>
<text text-anchor="middle" x="3343" y="-232.8" font-family="Times,serif" font-size="14.00">AppComponent </text>
</g>
<!-- AppModule&#45;&gt;AppComponent  -->
<g id="edge28" class="edge"><title>AppModule&#45;&gt;AppComponent </title>
<path fill="none" stroke="black" stroke-dasharray="1,5" d="M3343,-187.223C3343,-187.223 3343,-208.727 3343,-208.727"/>
<polygon fill="black" stroke="black" points="3339.5,-208.727 3343,-218.727 3346.5,-208.727 3339.5,-208.727"/>
</g>
<!-- BrowserModule -->
<g id="node10" class="node"><title>BrowserModule</title>
<polygon fill="#8dd3c7" stroke="black" points="5865.47,-122 5862.47,-126 5841.47,-126 5838.47,-122 5758.53,-122 5758.53,-86 5865.47,-86 5865.47,-122"/>
<text text-anchor="middle" x="5812" y="-99.8" font-family="Times,serif" font-size="14.00">BrowserModule</text>
</g>
<!-- BrowserModule&#45;&gt;AppModule -->
<g id="edge9" class="edge"><title>BrowserModule&#45;&gt;AppModule</title>
<path fill="none" stroke="black" d="M5812,-122.091C5812,-145.133 5812,-182 5812,-182 5812,-182 3394.82,-182 3394.82,-182"/>
<polygon fill="black" stroke="black" points="3394.82,-178.5 3384.82,-182 3394.82,-185.5 3394.82,-178.5"/>
</g>
<!-- FormsModule -->
<g id="node11" class="node"><title>FormsModule</title>
<polygon fill="#8dd3c7" stroke="black" points="5740.83,-122 5737.83,-126 5716.83,-126 5713.83,-122 5645.17,-122 5645.17,-86 5740.83,-86 5740.83,-122"/>
<text text-anchor="middle" x="5693" y="-99.8" font-family="Times,serif" font-size="14.00">FormsModule</text>
</g>
<!-- FormsModule&#45;&gt;AppModule -->
<g id="edge10" class="edge"><title>FormsModule&#45;&gt;AppModule</title>
<path fill="none" stroke="black" d="M5693,-122.011C5693,-144.485 5693,-180 5693,-180 5693,-180 3394.79,-180 3394.79,-180"/>
<polygon fill="black" stroke="black" points="3394.79,-176.5 3384.79,-180 3394.79,-183.5 3394.79,-176.5"/>
</g>
<!-- ReactiveFormsModule -->
<g id="node12" class="node"><title>ReactiveFormsModule</title>
<polygon fill="#8dd3c7" stroke="black" points="5627.3,-122 5624.3,-126 5603.3,-126 5600.3,-122 5482.7,-122 5482.7,-86 5627.3,-86 5627.3,-122"/>
<text text-anchor="middle" x="5555" y="-99.8" font-family="Times,serif" font-size="14.00">ReactiveFormsModule</text>
</g>
<!-- ReactiveFormsModule&#45;&gt;AppModule -->
<g id="edge11" class="edge"><title>ReactiveFormsModule&#45;&gt;AppModule</title>
<path fill="none" stroke="black" d="M5555,-122.292C5555,-144.206 5555,-178 5555,-178 5555,-178 3394.73,-178 3394.73,-178"/>
<polygon fill="black" stroke="black" points="3394.73,-174.5 3384.73,-178 3394.73,-181.5 3394.73,-174.5"/>
</g>
<!-- HttpModule -->
<g id="node13" class="node"><title>HttpModule</title>
<polygon fill="#8dd3c7" stroke="black" points="5465.44,-122 5462.44,-126 5441.44,-126 5438.44,-122 5380.56,-122 5380.56,-86 5465.44,-86 5465.44,-122"/>
<text text-anchor="middle" x="5423" y="-99.8" font-family="Times,serif" font-size="14.00">HttpModule</text>
</g>
<!-- HttpModule&#45;&gt;AppModule -->
<g id="edge12" class="edge"><title>HttpModule&#45;&gt;AppModule</title>
<path fill="none" stroke="black" d="M5423,-122.169C5423,-143.498 5423,-176 5423,-176 5423,-176 3395.02,-176 3395.02,-176"/>
<polygon fill="black" stroke="black" points="3395.02,-172.5 3385.02,-176 3395.02,-179.5 3395.02,-172.5"/>
</g>
<!-- AppRoutes -->
<g id="node14" class="node"><title>AppRoutes</title>
<polygon fill="#8dd3c7" stroke="black" points="6011.49,-187 6008.49,-191 5987.49,-191 5984.49,-187 5932.51,-187 5932.51,-151 6011.49,-151 6011.49,-187"/>
<text text-anchor="middle" x="5972" y="-164.8" font-family="Times,serif" font-size="14.00">AppRoutes</text>
</g>
<!-- AppRoutes&#45;&gt;AppModule -->
<g id="edge13" class="edge"><title>AppRoutes&#45;&gt;AppModule</title>
<path fill="none" stroke="black" d="M5932.28,-186C5932.28,-186 3394.82,-186 3394.82,-186"/>
<polygon fill="black" stroke="black" points="3394.82,-182.5 3384.82,-186 3394.82,-189.5 3394.82,-182.5"/>
</g>
<!-- RouterModule  -->
<g id="node35" class="node"><title>RouterModule </title>
<polygon fill="#fb8072" stroke="black" points="6202.65,-255 6101.35,-255 6101.35,-219 6202.65,-219 6202.65,-255"/>
<text text-anchor="middle" x="6152" y="-232.8" font-family="Times,serif" font-size="14.00">RouterModule </text>
</g>
<!-- AppRoutes&#45;&gt;RouterModule  -->
<g id="edge38" class="edge"><title>AppRoutes&#45;&gt;RouterModule </title>
<path fill="none" stroke="black" stroke-dasharray="5,2" d="M5972,-187.223C5972,-207.365 5972,-237 5972,-237 5972,-237 6091.38,-237 6091.38,-237"/>
<polygon fill="black" stroke="black" points="6091.38,-240.5 6101.38,-237 6091.38,-233.5 6091.38,-240.5"/>
</g>
<!-- AngularFireModule.initializeApp(args) -->
<g id="node15" class="node"><title>AngularFireModule.initializeApp(args)</title>
<polygon fill="#8dd3c7" stroke="black" points="5362.71,-122 5359.71,-126 5338.71,-126 5335.71,-122 5125.29,-122 5125.29,-86 5362.71,-86 5362.71,-122"/>
<text text-anchor="middle" x="5244" y="-99.8" font-family="Times,serif" font-size="14.00">AngularFireModule.initializeApp(args)</text>
</g>
<!-- AngularFireModule.initializeApp(args)&#45;&gt;AppModule -->
<g id="edge14" class="edge"><title>AngularFireModule.initializeApp(args)&#45;&gt;AppModule</title>
<path fill="none" stroke="black" d="M5244,-122.027C5244,-142.767 5244,-174 5244,-174 5244,-174 3394.92,-174 3394.92,-174"/>
<polygon fill="black" stroke="black" points="3394.92,-170.5 3384.92,-174 3394.92,-177.5 3394.92,-170.5"/>
</g>
<!-- RouterModule.forRoot(args) -->
<g id="node16" class="node"><title>RouterModule.forRoot(args)</title>
<polygon fill="#8dd3c7" stroke="black" points="6060.84,-122 6057.84,-126 6036.84,-126 6033.84,-122 5883.16,-122 5883.16,-86 6060.84,-86 6060.84,-122"/>
<text text-anchor="middle" x="5972" y="-99.8" font-family="Times,serif" font-size="14.00">RouterModule.forRoot(args)</text>
</g>
<!-- RouterModule.forRoot(args)&#45;&gt;AppModule -->
<g id="edge15" class="edge"><title>RouterModule.forRoot(args)&#45;&gt;AppModule</title>
<path fill="none" stroke="black" d="M5907.92,-122.153C5907.92,-145.757 5907.92,-184 5907.92,-184 5907.92,-184 3394.85,-184 3394.85,-184"/>
<polygon fill="black" stroke="black" points="3394.85,-180.5 3384.85,-184 3394.85,-187.5 3394.85,-180.5"/>
</g>
<!-- RouterModule.forRoot(args)&#45;&gt;AppRoutes -->
<g id="edge37" class="edge"><title>RouterModule.forRoot(args)&#45;&gt;AppRoutes</title>
<path fill="none" stroke="black" d="M5972,-122.106C5972,-122.106 5972,-140.991 5972,-140.991"/>
<polygon fill="black" stroke="black" points="5968.5,-140.991 5972,-150.991 5975.5,-140.991 5968.5,-140.991"/>
</g>
<!-- StoreModule.provideStore(args) -->
<g id="node17" class="node"><title>StoreModule.provideStore(args)</title>
<polygon fill="#8dd3c7" stroke="black" points="5107.55,-122 5104.55,-126 5083.55,-126 5080.55,-122 4910.45,-122 4910.45,-86 5107.55,-86 5107.55,-122"/>
<text text-anchor="middle" x="5009" y="-99.8" font-family="Times,serif" font-size="14.00">StoreModule.provideStore(args)</text>
</g>
<!-- StoreModule.provideStore(args)&#45;&gt;AppModule -->
<g id="edge16" class="edge"><title>StoreModule.provideStore(args)&#45;&gt;AppModule</title>
<path fill="none" stroke="black" d="M5009,-122.223C5009,-142.365 5009,-172 5009,-172 5009,-172 3395.02,-172 3395.02,-172"/>
<polygon fill="black" stroke="black" points="3395.02,-168.5 3385.02,-172 3395.02,-175.5 3395.02,-168.5"/>
</g>
<!-- StoreDevtoolsModule.instrumentOnlyWithExtension() -->
<g id="node18" class="node"><title>StoreDevtoolsModule.instrumentOnlyWithExtension()</title>
<polygon fill="#8dd3c7" stroke="black" points="4892.33,-122 4889.33,-126 4868.33,-126 4865.33,-122 4567.67,-122 4567.67,-86 4892.33,-86 4892.33,-122"/>
<text text-anchor="middle" x="4730" y="-99.8" font-family="Times,serif" font-size="14.00">StoreDevtoolsModule.instrumentOnlyWithExtension()</text>
</g>
<!-- StoreDevtoolsModule.instrumentOnlyWithExtension()&#45;&gt;AppModule -->
<g id="edge17" class="edge"><title>StoreDevtoolsModule.instrumentOnlyWithExtension()&#45;&gt;AppModule</title>
<path fill="none" stroke="black" d="M4730,-122.035C4730,-141.576 4730,-170 4730,-170 4730,-170 3394.89,-170 3394.89,-170"/>
<polygon fill="black" stroke="black" points="3394.89,-166.5 3384.89,-170 3394.89,-173.5 3394.89,-166.5"/>
</g>
<!-- RouterStoreModule.connectRouter() -->
<g id="node19" class="node"><title>RouterStoreModule.connectRouter()</title>
<polygon fill="#8dd3c7" stroke="black" points="4549.66,-122 4546.66,-126 4525.66,-126 4522.66,-122 4328.34,-122 4328.34,-86 4549.66,-86 4549.66,-122"/>
<text text-anchor="middle" x="4439" y="-99.8" font-family="Times,serif" font-size="14.00">RouterStoreModule.connectRouter()</text>
</g>
<!-- RouterStoreModule.connectRouter()&#45;&gt;AppModule -->
<g id="edge18" class="edge"><title>RouterStoreModule.connectRouter()&#45;&gt;AppModule</title>
<path fill="none" stroke="black" d="M4439,-122.106C4439,-141.339 4439,-169 4439,-169 4439,-169 3394.96,-169 3394.96,-169"/>
<polygon fill="black" stroke="black" points="3394.96,-165.5 3384.96,-169 3394.96,-172.5 3394.96,-165.5"/>
</g>
<!-- EffectsModule.run(args) -->
<g id="node20" class="node"><title>EffectsModule.run(args)</title>
<polygon fill="#8dd3c7" stroke="black" points="4309.99,-122 4306.99,-126 4285.99,-126 4282.99,-122 4156.01,-122 4156.01,-86 4309.99,-86 4309.99,-122"/>
<text text-anchor="middle" x="4233" y="-99.8" font-family="Times,serif" font-size="14.00">EffectsModule.run(args)</text>
</g>
<!-- EffectsModule.run(args)&#45;&gt;AppModule -->
<g id="edge19" class="edge"><title>EffectsModule.run(args)&#45;&gt;AppModule</title>
<path fill="none" stroke="black" d="M4248.4,-122.302C4248.4,-140.27 4248.4,-165 4248.4,-165 4248.4,-165 3394.85,-165 3394.85,-165"/>
<polygon fill="black" stroke="black" points="3394.85,-161.5 3384.85,-165 3394.85,-168.5 3394.85,-161.5"/>
</g>
<!-- EffectsModule.run(args)&#45;&gt;AppModule -->
<g id="edge20" class="edge"><title>EffectsModule.run(args)&#45;&gt;AppModule</title>
<path fill="none" stroke="black" d="M4217.6,-122.023C4217.6,-139.373 4217.6,-163 4217.6,-163 4217.6,-163 3394.89,-163 3394.89,-163"/>
<polygon fill="black" stroke="black" points="3394.89,-159.5 3384.89,-163 3394.89,-166.5 3394.89,-159.5"/>
</g>
<!-- EffectsModule.run(args)&#45;&gt;AppModule -->
<g id="edge21" class="edge"><title>EffectsModule.run(args)&#45;&gt;AppModule</title>
<path fill="none" stroke="black" d="M4186.8,-122.035C4186.8,-138.734 4186.8,-161 4186.8,-161 4186.8,-161 3394.84,-161 3394.84,-161"/>
<polygon fill="black" stroke="black" points="3394.84,-157.5 3384.84,-161 3394.84,-164.5 3394.84,-157.5"/>
</g>
<!-- EffectsModule.run(args)&#45;&gt;AppModule -->
<g id="edge22" class="edge"><title>EffectsModule.run(args)&#45;&gt;AppModule</title>
<path fill="none" stroke="black" d="M4279.2,-122.222C4279.2,-140.829 4279.2,-167 4279.2,-167 4279.2,-167 3394.74,-167 3394.74,-167"/>
<polygon fill="black" stroke="black" points="3394.74,-163.5 3384.74,-167 3394.74,-170.5 3394.74,-163.5"/>
</g>
<!-- MasonryModule -->
<g id="node21" class="node"><title>MasonryModule</title>
<polygon fill="#8dd3c7" stroke="black" points="4137.81,-122 4134.81,-126 4113.81,-126 4110.81,-122 4028.19,-122 4028.19,-86 4137.81,-86 4137.81,-122"/>
<text text-anchor="middle" x="4083" y="-99.8" font-family="Times,serif" font-size="14.00">MasonryModule</text>
</g>
<!-- MasonryModule&#45;&gt;AppModule -->
<g id="edge23" class="edge"><title>MasonryModule&#45;&gt;AppModule</title>
<path fill="none" stroke="black" d="M4083,-122.009C4083,-138.049 4083,-159 4083,-159 4083,-159 3394.91,-159 3394.91,-159"/>
<polygon fill="black" stroke="black" points="3394.91,-155.5 3384.91,-159 3394.91,-162.5 3394.91,-155.5"/>
</g>
<!-- InfiniteScrollModule -->
<g id="node22" class="node"><title>InfiniteScrollModule</title>
<polygon fill="#8dd3c7" stroke="black" points="4010.2,-122 4007.2,-126 3986.2,-126 3983.2,-122 3875.8,-122 3875.8,-86 4010.2,-86 4010.2,-122"/>
<text text-anchor="middle" x="3943" y="-99.8" font-family="Times,serif" font-size="14.00">InfiniteScrollModule</text>
</g>
<!-- InfiniteScrollModule&#45;&gt;AppModule -->
<g id="edge24" class="edge"><title>InfiniteScrollModule&#45;&gt;AppModule</title>
<path fill="none" stroke="black" d="M3943,-122.24C3943,-137.571 3943,-157 3943,-157 3943,-157 3394.71,-157 3394.71,-157"/>
<polygon fill="black" stroke="black" points="3394.71,-153.5 3384.71,-157 3394.71,-160.5 3394.71,-153.5"/>
</g>
<!-- SlimLoadingBarModule.forRoot() -->
<g id="node23" class="node"><title>SlimLoadingBarModule.forRoot()</title>
<polygon fill="#8dd3c7" stroke="black" points="3857.74,-122 3854.74,-126 3833.74,-126 3830.74,-122 3648.26,-122 3648.26,-86 3857.74,-86 3857.74,-122"/>
<text text-anchor="middle" x="3753" y="-99.8" font-family="Times,serif" font-size="14.00">SlimLoadingBarModule.forRoot()</text>
</g>
<!-- SlimLoadingBarModule.forRoot()&#45;&gt;AppModule -->
<g id="edge25" class="edge"><title>SlimLoadingBarModule.forRoot()&#45;&gt;AppModule</title>
<path fill="none" stroke="black" d="M3753,-122.124C3753,-136.783 3753,-155 3753,-155 3753,-155 3394.95,-155 3394.95,-155"/>
<polygon fill="black" stroke="black" points="3394.95,-151.5 3384.95,-155 3394.95,-158.5 3394.95,-151.5"/>
</g>
<!-- ToasterModule -->
<g id="node24" class="node"><title>ToasterModule</title>
<polygon fill="#8dd3c7" stroke="black" points="3630.53,-122 3627.53,-126 3606.53,-126 3603.53,-122 3529.47,-122 3529.47,-86 3630.53,-86 3630.53,-122"/>
<text text-anchor="middle" x="3580" y="-99.8" font-family="Times,serif" font-size="14.00">ToasterModule</text>
</g>
<!-- ToasterModule&#45;&gt;AppModule -->
<g id="edge26" class="edge"><title>ToasterModule&#45;&gt;AppModule</title>
<path fill="none" stroke="black" d="M3580,-122.246C3580,-136.177 3580,-153 3580,-153 3580,-153 3394.83,-153 3394.83,-153"/>
<polygon fill="black" stroke="black" points="3394.83,-149.5 3384.83,-153 3394.83,-156.5 3394.83,-149.5"/>
</g>
<!-- TagInputModule -->
<g id="node25" class="node"><title>TagInputModule</title>
<polygon fill="#8dd3c7" stroke="black" points="3511.37,-122 3508.37,-126 3487.37,-126 3484.37,-122 3400.63,-122 3400.63,-86 3511.37,-86 3511.37,-122"/>
<text text-anchor="middle" x="3456" y="-99.8" font-family="Times,serif" font-size="14.00">TagInputModule</text>
</g>
<!-- TagInputModule&#45;&gt;AppModule -->
<g id="edge27" class="edge"><title>TagInputModule&#45;&gt;AppModule</title>
<path fill="none" stroke="black" d="M3400.54,-104C3389.26,-104 3380.77,-104 3380.77,-104 3380.77,-104 3380.77,-140.894 3380.77,-140.894"/>
<polygon fill="black" stroke="black" points="3377.27,-140.894 3380.77,-150.894 3384.27,-140.894 3377.27,-140.894"/>
</g>
<!-- AuthenticationService -->
<g id="node27" class="node"><title>AuthenticationService</title>
<ellipse fill="#fdb462" stroke="black" cx="2176" cy="-104" rx="97.2683" ry="18"/>
<text text-anchor="middle" x="2176" y="-99.8" font-family="Times,serif" font-size="14.00">AuthenticationService</text>
</g>
<!-- AuthenticationService&#45;&gt;AppModule -->
<g id="edge29" class="edge"><title>AuthenticationService&#45;&gt;AppModule</title>
<path fill="none" stroke="black" d="M2176,-122.106C2176,-141.339 2176,-169 2176,-169 2176,-169 3291.12,-169 3291.12,-169"/>
<polygon fill="black" stroke="black" points="3291.12,-172.5 3301.12,-169 3291.12,-165.5 3291.12,-172.5"/>
</g>
<!-- PinDataService -->
<g id="node28" class="node"><title>PinDataService</title>
<ellipse fill="#fdb462" stroke="black" cx="1990" cy="-104" rx="71.2017" ry="18"/>
<text text-anchor="middle" x="1990" y="-99.8" font-family="Times,serif" font-size="14.00">PinDataService</text>
</g>
<!-- PinDataService&#45;&gt;AppModule -->
<g id="edge30" class="edge"><title>PinDataService&#45;&gt;AppModule</title>
<path fill="none" stroke="black" d="M1990,-122.223C1990,-142.365 1990,-172 1990,-172 1990,-172 3291.02,-172 3291.02,-172"/>
<polygon fill="black" stroke="black" points="3291.02,-175.5 3301.02,-172 3291.02,-168.5 3291.02,-175.5"/>
</g>
<!-- LoaderService -->
<g id="node29" class="node"><title>LoaderService</title>
<ellipse fill="#fdb462" stroke="black" cx="1834" cy="-104" rx="67.1734" ry="18"/>
<text text-anchor="middle" x="1834" y="-99.8" font-family="Times,serif" font-size="14.00">LoaderService</text>
</g>
<!-- LoaderService&#45;&gt;AppModule -->
<g id="edge31" class="edge"><title>LoaderService&#45;&gt;AppModule</title>
<path fill="none" stroke="black" d="M1834,-122.027C1834,-142.767 1834,-174 1834,-174 1834,-174 3291.07,-174 3291.07,-174"/>
<polygon fill="black" stroke="black" points="3291.07,-177.5 3301.07,-174 3291.07,-170.5 3291.07,-177.5"/>
</g>
<!-- { provide: HttpService, useFactory: httpInterceptor, deps: [XHRBackend, RequestOptions, LoaderService, Store] } -->
<g id="node30" class="node"><title>{ provide: HttpService, useFactory: httpInterceptor, deps: [XHRBackend, RequestOptions, LoaderService, Store] }</title>
<ellipse fill="#fdb462" stroke="black" cx="1292" cy="-104" rx="456.72" ry="18"/>
<text text-anchor="middle" x="1292" y="-99.8" font-family="Times,serif" font-size="14.00">{ provide: HttpService, useFactory: httpInterceptor, deps: [XHRBackend, RequestOptions, LoaderService, Store] }</text>
</g>
<!-- { provide: HttpService, useFactory: httpInterceptor, deps: [XHRBackend, RequestOptions, LoaderService, Store] }&#45;&gt;AppModule -->
<g id="edge32" class="edge"><title>{ provide: HttpService, useFactory: httpInterceptor, deps: [XHRBackend, RequestOptions, LoaderService, Store] }&#45;&gt;AppModule</title>
<path fill="none" stroke="black" d="M1292,-122.169C1292,-143.498 1292,-176 1292,-176 1292,-176 3291.1,-176 3291.1,-176"/>
<polygon fill="black" stroke="black" points="3291.1,-179.5 3301.1,-176 3291.1,-172.5 3291.1,-179.5"/>
</g>
<!-- ToasterService -->
<g id="node31" class="node"><title>ToasterService</title>
<ellipse fill="#fdb462" stroke="black" cx="748" cy="-104" rx="68.8946" ry="18"/>
<text text-anchor="middle" x="748" y="-99.8" font-family="Times,serif" font-size="14.00">ToasterService</text>
</g>
<!-- ToasterService&#45;&gt;AppModule -->
<g id="edge33" class="edge"><title>ToasterService&#45;&gt;AppModule</title>
<path fill="none" stroke="black" d="M748,-122.292C748,-144.206 748,-178 748,-178 748,-178 3291.19,-178 3291.19,-178"/>
<polygon fill="black" stroke="black" points="3291.19,-181.5 3301.19,-178 3291.19,-174.5 3291.19,-181.5"/>
</g>
<!-- CanActivateViaAuthGuard -->
<g id="node32" class="node"><title>CanActivateViaAuthGuard</title>
<ellipse fill="#fdb462" stroke="black" cx="544" cy="-104" rx="116.873" ry="18"/>
<text text-anchor="middle" x="544" y="-99.8" font-family="Times,serif" font-size="14.00">CanActivateViaAuthGuard</text>
</g>
<!-- CanActivateViaAuthGuard&#45;&gt;AppModule -->
<g id="edge34" class="edge"><title>CanActivateViaAuthGuard&#45;&gt;AppModule</title>
<path fill="none" stroke="black" d="M544,-122.248C544,-145.018 544,-181 544,-181 544,-181 3291.26,-181 3291.26,-181"/>
<polygon fill="black" stroke="black" points="3291.26,-184.5 3301.26,-181 3291.26,-177.5 3291.26,-184.5"/>
</g>
<!-- CanEditPinGuard -->
<g id="node33" class="node"><title>CanEditPinGuard</title>
<ellipse fill="#fdb462" stroke="black" cx="330" cy="-104" rx="79.8953" ry="18"/>
<text text-anchor="middle" x="330" y="-99.8" font-family="Times,serif" font-size="14.00">CanEditPinGuard</text>
</g>
<!-- CanEditPinGuard&#45;&gt;AppModule -->
<g id="edge35" class="edge"><title>CanEditPinGuard&#45;&gt;AppModule</title>
<path fill="none" stroke="black" d="M330,-122.323C330,-145.66 330,-183 330,-183 330,-183 3291.27,-183 3291.27,-183"/>
<polygon fill="black" stroke="black" points="3291.27,-186.5 3301.27,-183 3291.27,-179.5 3291.27,-186.5"/>
</g>
<!-- PhoenixChannelService -->
<g id="node34" class="node"><title>PhoenixChannelService</title>
<ellipse fill="#fdb462" stroke="black" cx="128" cy="-104" rx="103.655" ry="18"/>
<text text-anchor="middle" x="128" y="-99.8" font-family="Times,serif" font-size="14.00">PhoenixChannelService</text>
</g>
<!-- PhoenixChannelService&#45;&gt;AppModule -->
<g id="edge36" class="edge"><title>PhoenixChannelService&#45;&gt;AppModule</title>
<path fill="none" stroke="black" d="M128,-122.38C128,-146.279 128,-185 128,-185 128,-185 3291.17,-185 3291.17,-185"/>
<polygon fill="black" stroke="black" points="3291.17,-188.5 3301.17,-185 3291.17,-181.5 3291.17,-188.5"/>
</g>
</g>
</svg>
